<?xml version="1.0" encoding="UTF-8" standalone="no"?>
<svg
   version="1.1"
   width="400"
   height="400"
   viewBox="0 0 400 400"
   xml:space="preserve"
   id="svg13"
   xmlns="http://www.w3.org/2000/svg"
   xmlns:svg="http://www.w3.org/2000/svg">
<desc
   id="desc2">Created with Fabric.js 3.6.2</desc>
<defs
   id="defs4" />
<g
   transform="matrix(9.5680099,0,0,9.5680099,198.65583,200.49752)"
   id="surface1">
<path
   style="opacity:1;fill:#aed1d4;fill-rule:nonzero;stroke:none;stroke-width:1;stroke-linecap:butt;stroke-linejoin:miter;stroke-miterlimit:4;stroke-dasharray:none;stroke-dashoffset:0"
   transform="translate(-24,-24)"
   d="M 37,31 C 37,38.2 31.2,44 24,44 16.8,44 11,38.2 11,31 11,23.8 24,4 24,4 24,4 37,23.8 37,31 Z"
   stroke-linecap="round"
   id="path6" />
</g>
<g
   transform="matrix(9.5680099,0,0,9.5680099,169.97473,296.10877)"
   id="g11">
<path
   style="opacity:1;fill:#ffffff;fill-rule:nonzero;stroke:none;stroke-width:1;stroke-linecap:butt;stroke-linejoin:miter;stroke-miterlimit:4;stroke-dasharray:none;stroke-dashoffset:0"
   transform="translate(-21,-34)"
   d="m 24,39 c -4.4,0 -8,-3.6 -8,-8 0,-1.1 0.9,-2 2,-2 1.1,0 2,0.9 2,2 0,2.2 1.8,4 4,4 1.1,0 2,0.9 2,2 0,1.1 -0.9,2 -2,2 z"
   stroke-linecap="round"
   id="path9" />
</g>
</svg>
