<?xml version="1.0" encoding="UTF-8" standalone="no"?>
<!-- Created with Inkscape (http://www.inkscape.org/) -->

<svg
   version="1.1"
   id="svg2"
   width="1342.6667"
   height="1130.6667"
   viewBox="0 0 1342.6667 1130.6667"
   sodipodi:docname="tg-black.png"
   inkscape:export-filename="tg-black.svg"
   inkscape:export-xdpi="96"
   inkscape:export-ydpi="96"
   xmlns:inkscape="http://www.inkscape.org/namespaces/inkscape"
   xmlns:sodipodi="http://sodipodi.sourceforge.net/DTD/sodipodi-0.dtd"
   xmlns="http://www.w3.org/2000/svg"
   xmlns:svg="http://www.w3.org/2000/svg">
  <defs
     id="defs6" />
  <sodipodi:namedview
     id="namedview4"
     pagecolor="#ffffff"
     bordercolor="#000000"
     borderopacity="0.25"
     inkscape:showpageshadow="2"
     inkscape:pageopacity="0.0"
     inkscape:pagecheckerboard="0"
     inkscape:deskcolor="#d1d1d1"
     showgrid="false" />
  <g
     inkscape:groupmode="layer"
     inkscape:label="Image"
     id="g8">
    <path
       style="fill:#aed1d4;fill-opacity:1;stroke:none;stroke-width:15.0335;stroke-linecap:round;stroke-linejoin:round;paint-order:stroke fill markers"
       d="m 1054.5961,1125.7077 c -19.5327,-5.4916 -32.003,-13.2922 -90.02264,-56.3119 -4.92231,-3.6497 -10.2921,-7.7089 -11.93287,-9.0203 -1.64077,-1.3116 -6.11559,-4.5965 -9.94406,-7.2999 -3.82846,-2.7035 -8.30328,-6.0013 -9.94405,-7.3286 -1.64077,-1.3273 -19.09259,-14.3562 -38.78182,-28.9533 -54.92874,-40.72263 -70.88895,-52.55828 -106.4014,-78.90444 -18.04847,-13.38987 -35.0528,-25.98625 -37.78742,-27.99194 -2.73461,-2.00568 -8.99937,-6.65816 -13.92168,-10.33884 -4.9223,-3.68067 -11.74033,-8.65803 -15.15116,-11.06077 l -6.20149,-4.36864 -9.709,9.12709 c -5.33994,5.0199 -32.97807,31.72939 -61.41807,59.35444 -76.55046,74.3569 -78.37607,76.042 -93.47413,86.2796 -15.10685,10.2435 -32.56579,18.163 -40.04143,18.163 -5.52152,0 -5.479,0.5735 -2.65439,-35.7986 1.06183,-13.6731 2.85864,-36.94219 3.99292,-51.70911 1.13428,-14.76693 2.88869,-37.58854 3.89871,-50.71469 1.01001,-13.12615 2.76311,-35.94776 3.89578,-50.71469 1.13269,-14.76692 3.00275,-38.48349 4.1557,-52.7035 1.15295,-14.22 2.78425,-36.05223 3.62512,-48.51609 1.5222,-22.56299 1.5585,-22.6877 8.35059,-28.67874 3.75197,-3.30946 15.77141,-14.2337 26.70987,-24.27607 10.93846,-10.04236 31.97014,-29.28073 46.73706,-42.7519 14.76693,-13.47119 36.20922,-33.07019 47.64952,-43.55332 11.44031,-10.48314 25.75216,-23.53507 31.80411,-29.0043 6.05195,-5.46923 12.35652,-11.28651 14.01016,-12.92728 1.65364,-1.64076 7.92599,-7.38761 13.93855,-12.77077 6.01257,-5.38317 16.30172,-14.78657 22.8648,-20.89646 6.56308,-6.10989 21.33,-19.60445 32.81539,-29.98793 11.48538,-10.38349 22.22496,-20.22379 23.86573,-21.86732 1.64077,-1.64353 11.48539,-10.59352 21.87693,-19.88883 10.39153,-9.29532 19.34119,-17.34806 19.88811,-17.89498 0.54692,-0.54693 11.73398,-10.83558 24.86014,-22.8637 13.12615,-12.02811 25.21113,-23.21517 26.85547,-24.86014 1.64437,-1.64496 7.48943,-7.01819 12.98903,-11.9405 12.2825,-10.99321 40.94308,-37.06241 76.50096,-69.58403 51.57386,-47.16997 68.60146,-62.74489 79.50626,-72.72333 6.0416,-5.52828 15.907,-14.47173 21.9231,-19.87431 21.4885,-19.29698 29.8322,-28.63894 29.8322,-33.40141 0,-7.4209 -5.9479,-11.25329 -17.4651,-11.25329 -11.7719,0 -16.4992,1.80273 -34.244,13.05873 -7.11,4.51007 -20.087,12.69427 -28.8378,18.18712 -8.7507,5.49284 -28.44,17.85245 -43.75382,27.46577 -15.31385,9.61331 -37.68798,23.7438 -49.72028,31.40108 -12.03231,7.65728 -28.81291,18.25836 -37.29022,23.55797 -8.4773,5.2996 -22.573,14.11045 -31.32377,19.57968 -18.02891,11.26807 -38.11483,23.89207 -65.63077,41.24896 -10.39154,6.55493 -32.76567,20.65554 -49.72029,31.3347 -16.95461,10.67914 -38.20124,24.22308 -47.21475,30.09761 -9.01349,5.87453 -16.85323,10.68097 -17.42161,10.68097 -0.56838,0 -8.40812,4.78467 -17.42161,10.63259 -9.01351,5.84792 -23.5479,15.1253 -32.29867,20.61641 -58.1141,36.46665 -74.00162,46.47152 -93.47413,58.8637 -20.73767,13.19732 -32.69097,20.71711 -69.6084,43.79051 -8.75077,5.46923 -22.62272,14.17837 -30.82657,19.35365 -8.20385,5.17529 -30.13049,18.99007 -48.72588,30.69951 -18.59538,11.70945 -35.549,22.3944 -37.67472,23.74432 -3.14429,1.99677 -5.74003,1.80636 -13.92168,-1.02123 -11.10807,-3.83898 -31.02971,-10.07723 -62.76024,-19.65268 -11.48539,-3.466 -23.11993,-7.04465 -25.85455,-7.95256 -6.13799,-2.03787 -37.76693,-11.6605 -65.63077,-19.96717 -11.48539,-3.42399 -23.11993,-7.00157 -25.85455,-7.95017 -2.73461,-0.9486 -11.68426,-3.68493 -19.88811,-6.08073 -8.20385,-2.3958 -19.83839,-5.95882 -25.85455,-7.91784 -6.01615,-1.95902 -17.650696,-5.55763 -25.854542,-7.99695 -8.203847,-2.43929 -20.285875,-6.03292 -26.848952,-7.98581 C 29.723484,553.29743 22.901585,550.76438 15.608847,545.48155 7.6243325,539.69758 1.9888113,529.9186 1.9888113,521.84747 c 0,-7.35745 8.5046497,-21.807 17.4905147,-29.71668 9.377432,-8.25434 30.813126,-19.25698 54.10669,-27.77222 8.203847,-2.99901 22.97077,-8.61364 32.815384,-12.47699 9.84462,-3.86332 40.27343,-15.67429 67.61958,-26.2466 27.34616,-10.5723 51.73396,-20.04998 54.19511,-21.06153 9.5304,-3.91704 14.10445,-5.7019 34.307,-13.38716 11.48538,-4.36916 32.96454,-12.59769 47.73147,-18.28561 14.76692,-5.68792 38.03601,-14.6508 51.70909,-19.91751 13.67308,-5.26669 36.49468,-14.03554 50.71469,-19.48629 39.88366,-15.28807 124.82475,-48.16575 129.27273,-50.0369 4.47082,-1.88076 47.37977,-18.41427 77.56364,-29.88654 24.55215,-9.33177 64.41371,-24.66884 97.94895,-37.68667 13.94654,-5.41382 37.43937,-14.44477 52.2063,-20.06876 14.76692,-5.624 29.53384,-11.38787 32.81538,-12.8086 3.28154,-1.42073 15.36357,-6.1726 26.84895,-10.55972 19.46945,-7.43682 30.35573,-11.62024 99.93777,-38.40445 14.49346,-5.57897 37.53881,-14.44462 51.21189,-19.70146 48.48555,-18.641045 87.13185,-33.567529 136.23355,-52.617914 27.3462,-10.609706 60.9074,-23.604135 74.5804,-28.876511 13.6731,-5.272379 33.3624,-12.904277 43.7539,-16.959776 44.6259,-17.4161334 63.7481,-17.2914907 83.7677,0.546017 20.7872,18.521533 25.9885,48.874358 15.9278,92.949024 -0.9987,4.37538 -3.7918,17.35238 -6.2069,28.83776 -8.1906,38.95172 -11.9531,56.65502 -14.1598,66.62518 -1.2105,5.46923 -2.8998,13.52392 -3.754,17.8993 -0.8542,4.37539 -2.6441,12.87755 -3.9776,18.89371 -1.3335,6.01615 -3.1325,14.51832 -3.9978,18.8937 -0.8653,4.37539 -4.8428,22.72217 -8.8388,40.77064 -3.9961,18.04846 -8.018,36.39524 -8.9377,40.77063 -0.9196,4.37538 -3.5421,16.90489 -5.8276,27.84335 -2.2855,10.93847 -5.9975,28.39028 -8.2489,38.78182 -2.2513,10.39154 -5.9418,27.84336 -8.201,38.78182 -2.2591,10.93846 -4.81,23.02049 -5.6685,26.84895 -0.8585,3.82847 -3.5369,16.35798 -5.952,27.84336 -2.4151,11.48539 -6.0014,28.48972 -7.9697,37.78742 -1.9682,9.29769 -5.5481,26.30202 -7.9552,37.78741 -2.4072,11.48538 -5.987,28.48972 -7.9553,37.78741 -1.9682,9.2977 -5.5545,26.30203 -7.9696,37.78742 -2.4151,11.48538 -5.0935,24.01489 -5.952,27.84335 -0.8585,3.82847 -3.5369,16.35798 -5.952,27.84336 -2.4151,11.48539 -6.1031,28.93721 -8.1954,38.78182 -2.0924,9.84462 -4.6852,22.37413 -5.7618,27.84336 -1.0766,5.46923 -2.743,13.52392 -3.703,17.8993 -9.3614,42.66517 -18.319,83.95309 -26.3204,121.31749 -6.2082,28.9904 -6.5316,30.51664 -13.6992,64.63636 -2.4128,11.48539 -5.9857,28.48976 -7.9398,37.78746 -1.9542,9.2976 -5.0498,24.0646 -6.8791,32.8153 -8.2219,39.3309 -21.6705,64.5043 -39.4425,73.83 -8.2257,4.3165 -28.5164,5.2069 -40.6856,1.7854 z"
       id="path531" />
  </g>
</svg>
