<?xml version="1.0" encoding="UTF-8" standalone="no"?>
<!-- Created with Inkscape (http://www.inkscape.org/) -->

<svg
   version="1.1"
   id="svg9821"
   width="1333.3333"
   height="756"
   viewBox="0 0 1333.3333 756"
   sodipodi:docname="vk-black.png"
   inkscape:export-filename="vk-black.svg"
   inkscape:export-xdpi="96"
   inkscape:export-ydpi="96"
   xmlns:inkscape="http://www.inkscape.org/namespaces/inkscape"
   xmlns:sodipodi="http://sodipodi.sourceforge.net/DTD/sodipodi-0.dtd"
   xmlns="http://www.w3.org/2000/svg"
   xmlns:svg="http://www.w3.org/2000/svg">
  <defs
     id="defs9825" />
  <sodipodi:namedview
     id="namedview9823"
     pagecolor="#ffffff"
     bordercolor="#000000"
     borderopacity="0.25"
     inkscape:showpageshadow="2"
     inkscape:pageopacity="0.0"
     inkscape:pagecheckerboard="0"
     inkscape:deskcolor="#d1d1d1"
     showgrid="false" />
  <g
     inkscape:groupmode="layer"
     inkscape:label="Image"
     id="g9827">
    <path
       style="fill:#aed1d4;fill-opacity:1;stroke-width:14.2155;stroke-linecap:round;stroke-linejoin:round;paint-order:stroke fill markers"
       d="m 582.98507,747.574 c -21.00361,-2.41378 -51.10257,-10.70452 -73.34328,-20.20235 -15.73001,-6.71745 -57.56647,-27.99782 -60.1791,-30.61046 -0.51717,-0.51716 -7.16912,-5.11388 -14.78214,-10.21497 -7.61299,-5.10106 -14.80627,-10.17867 -15.98507,-11.28358 -1.17878,-1.10489 -7.22085,-5.77682 -13.42682,-10.38204 -19.33442,-14.34736 -36.47745,-29.84856 -69.69553,-63.02059 -64.88556,-64.79562 -127.11544,-147.6749 -188.30364,-250.78741 -7.56091,-12.74141 -13.7471,-23.54814 -13.7471,-24.01498 0,-0.46682 -2.16113,-4.27223 -4.80251,-8.45645 C 116.22001,298.8001 56.41791,184.92801 56.41791,180.92748 c 0,-0.61145 -3.274354,-8.14266 -7.276342,-16.73602 C 36.798074,137.6866 34.151375,131.51666 24.488016,106.71954 13.153138,77.633128 12.233973,73.438526 14.969222,63.280585 17.537899,53.741247 25.569111,46.062945 36.353464,42.836015 47.127507,39.612168 233.09789,39.422541 245.99559,42.622249 c 17.5037,4.342384 26.81779,12.835799 33.51,30.557441 2.76815,7.330276 7.86703,19.525022 11.33086,27.09944 3.46384,7.57442 6.29788,14.17371 6.29788,14.66509 0,2.46742 37.79989,77.81056 48.47602,96.62294 15.66779,27.60816 17.3448,30.57836 24.95245,44.19403 3.46754,6.20597 6.7791,11.70672 7.35906,12.22388 0.57994,0.51717 2.71976,4.11381 4.75515,7.99254 2.03537,3.87873 4.35452,7.05224 5.15362,7.05224 0.79912,0 1.45295,0.86701 1.45295,1.92669 0,1.94811 12.85149,23.26158 19.24944,31.92406 1.90982,2.58582 8.18326,11.89477 13.94096,20.68656 17.99327,27.47508 28.63882,36.20447 47.14538,38.65946 19.60667,2.60092 40.45587,-8.36631 50.01141,-26.3073 4.04911,-7.60239 4.07142,-8.26188 3.53357,-104.50141 -0.3113,-55.70437 -1.40733,-103.24242 -2.57986,-111.89552 -6.22021,-45.904555 -29.41497,-72.834101 -65.48,-76.023473 L 442.8806,56.41791 454.16418,45.415164 C 467.74468,32.172658 480.09953,23.977585 496.47761,17.348319 518.44135,8.4581755 522.93159,8.1688424 629.0597,8.8052729 l 99.67164,0.5977122 10.67267,5.0031539 c 13.66329,6.405104 26.04172,17.853707 33.89908,31.352653 l 6.20437,10.659118 0.96953,135.40299 c 0.95805,133.80212 1.01853,135.5337 5.11486,146.45988 5.25462,14.01558 8.22978,18.50706 16.37368,24.71873 9.97038,7.60478 19.43785,8.10321 32.5062,1.71136 25.57512,-12.50907 48.26748,-43.29815 86.53593,-117.41236 13.36516,-25.88416 23.15611,-44.31864 32.46191,-61.11941 2.86452,-5.17164 10.2535,-19.13507 16.41994,-31.02985 6.16644,-11.89477 13.59505,-25.85821 16.508,-31.02985 2.91293,-5.17164 6.96225,-12.36492 8.99846,-15.98507 2.03622,-3.62015 7.92893,-14.621643 13.09483,-24.447763 11.6701,-22.197798 16.7348,-29.05529 25.5173,-34.549988 13.3513,-8.35314 18.6867,-8.703743 132.4494,-8.703743 111.2831,0 123.3858,0.680904 137.1792,7.717772 27.2985,13.926641 18.209,56.464842 -26.7113,125.007592 -4.6635,7.11589 -26.9611,37.29236 -29.4394,39.84179 -1.2688,1.30521 -7.6355,9.7679 -14.1482,18.80597 -6.5127,9.03806 -12.8586,17.70225 -14.102,19.25374 -10.6946,13.3444 -30.9847,39.73354 -33.5194,43.59516 -1.0343,1.57578 -6.9582,9.46786 -13.1642,17.53797 -6.2059,8.0701 -15.7298,20.67737 -21.1641,28.01616 -5.4344,7.33878 -11.1467,14.83389 -12.6941,16.65579 -1.5474,1.8219 -2.8134,4.14914 -2.8134,5.17164 0,1.0225 -0.6797,1.8591 -1.5104,1.8591 -2.1806,0 -17.3376,21.95078 -22.3936,32.43109 -3.523,7.30262 -4.305,12.05116 -4.305,26.14091 0,26.04473 4.3618,33.56157 42.2469,72.80559 9.3456,9.68078 18.6845,19.41885 20.7531,21.64014 15.1586,16.27689 81.5669,85.34531 101.3559,105.41576 33.9434,34.42617 43.7737,48.31513 48.2112,68.11586 5.6245,25.09794 -7.8176,45.90257 -35.2743,54.59475 -10.0379,3.17775 -19.757,3.43799 -128.3972,3.43799 h -117.5373 l -10.6946,-5.64179 c -12.5683,-6.63029 -25.5534,-18.35079 -109.61606,-98.94028 -10.36946,-9.94104 -23.43113,-22.21194 -29.02592,-27.26865 -5.5948,-5.05674 -14.90376,-13.64058 -20.68657,-19.0752 -12.96347,-12.18292 -20.61548,-15.97857 -34.29254,-17.01017 -19.56129,-1.47542 -38.05072,8.70788 -47.79278,26.32253 l -5.51505,9.97177 -0.94946,50.92689 -0.94946,50.92688 -5.69151,9.2025 c -3.5237,5.69742 -9.19642,11.37031 -14.89358,14.89401 l -9.20206,5.69151 -77.25568,0.25059 c -42.49062,0.13783 -82.75642,-0.38155 -89.47956,-1.1542 z"
       id="path9950" />
  </g>
</svg>
